<?xml version="1.0" encoding="UTF-8"?>
<svg id="Layer_1" data-name="Layer 1" xmlns="http://www.w3.org/2000/svg" viewBox="0 0 120 120">
  <defs>
    <style>
      .cls-1 {
        fill-rule: evenodd;
      }

      .cls-1, .cls-2, .cls-3 {
        stroke-width: 0px;
      }

      .cls-1, .cls-3 {
        fill: #fff;
      }

      .cls-2 {
        fill: #000;
      }
    </style>
  </defs>
  <rect class="cls-3" x="48.77" y="14.56" width="33.46" height="6.53"/>
  <path class="cls-2" d="M81.65,15.14h-32.31v5.38h32.31v-5.38ZM48.77,13.99h34.03v7.68h-34.61v-7.68h.58Z"/>
  <rect class="cls-3" x="45.03" y="8.3" width="5.98" height="82.03"/>
  <path class="cls-2" d="M45.03,7.73h6.56v83.18h-7.14V7.73h.58ZM50.44,8.88h-4.83v80.88h4.83V8.88Z"/>
  <path class="cls-1" d="M48.02,16.81c.56,0,1.02.46,1.02,1.02s-.46,1.02-1.02,1.02-1.02-.46-1.02-1.02.46-1.02,1.02-1.02"/>
  <path class="cls-2" d="M48.33,17.51c-.08-.08-.19-.13-.31-.13s-.23.05-.31.13c-.08.08-.13.19-.13.31s.05.24.13.31h0c.08.08.19.13.31.13s.24-.05.31-.13h0c.08-.08.13-.19.13-.32s-.05-.23-.13-.31h0ZM48.02,16.23c.44,0,.84.18,1.13.47h0c.29.29.47.69.47,1.13s-.18.84-.47,1.13h0c-.29.29-.69.47-1.12.47s-.84-.18-1.13-.47h0c-.29-.29-.47-.69-.47-1.13s.18-.84.47-1.13c.29-.29.69-.47,1.13-.47Z"/>
  <polygon class="cls-1" points="42.85 36.29 65.82 13.09 70.44 17.7 47.46 40.91 42.85 36.29"/>
  <path class="cls-2" d="M65.82,13.9l-22.17,22.38,3.81,3.8,22.17-22.38-3.81-3.81ZM42.44,35.89l22.98-23.2.41-.41.41.41,4.62,4.62.4.4-.4.41-22.98,23.2-.41.41-.41-.41-4.62-4.62-.4-.4.4-.41Z"/>
  <path class="cls-1" d="M65.68,16.81c.56,0,1.02.46,1.02,1.02s-.46,1.02-1.02,1.02-1.02-.46-1.02-1.02.46-1.02,1.02-1.02"/>
  <path class="cls-2" d="M66,17.51c-.08-.08-.19-.13-.31-.13s-.24.05-.31.13h0c-.08.08-.13.19-.13.32s.05.24.13.31h0c.08.08.19.13.31.13s.23-.05.31-.13h0c.08-.08.13-.19.13-.31s-.05-.23-.13-.31M65.68,16.23c.44,0,.84.18,1.13.47.29.29.47.69.47,1.13s-.18.84-.47,1.13h0c-.29.29-.69.47-1.13.47s-.84-.18-1.13-.47h0c-.29-.29-.47-.69-.47-1.13s.18-.84.47-1.13h0c.29-.29.69-.47,1.13-.47Z"/>
  <path class="cls-1" d="M48.11,34.3c.56,0,1.02.46,1.02,1.02s-.46,1.02-1.02,1.02-1.02-.46-1.02-1.02.46-1.02,1.02-1.02"/>
  <path class="cls-2" d="M48.43,35c-.08-.08-.19-.13-.31-.13s-.23.05-.31.13h0c-.08.08-.13.19-.13.31s.05.24.13.31c.08.08.19.13.31.13s.24-.05.31-.13h0c.08-.08.13-.19.13-.32s-.05-.24-.13-.31h0ZM48.11,33.72c.44,0,.84.18,1.12.47h0c.29.29.47.69.47,1.13s-.18.84-.47,1.13h0c-.29.29-.69.47-1.13.47s-.84-.18-1.13-.47c-.29-.29-.47-.69-.47-1.13s.18-.84.47-1.13h0c.29-.29.69-.47,1.13-.47Z"/>
  <path class="cls-2" d="M74.78,22.01c0-.36.39-.65.86-.65s.86.29.86.65v14.06c0,.36-.39.65-.86.65s-.86-.29-.86-.65v-14.06Z"/>
  <path class="cls-2" d="M73.22,14.15c.07-.47.51-.8.98-.73.47.07.8.51.73.98l-1.13,7.52c-.07.47-.51.8-.98.73-.47-.07-.8-.51-.73-.98l1.13-7.52Z"/>
  <path class="cls-2" d="M74.91,14.15c.07-.47.51-.8.98-.73.47.07.8.51.73.98l-1.13,7.52c-.07.47-.51.8-.98.73-.47-.07-.8-.51-.73-.98l1.13-7.52Z"/>
  <path class="cls-2" d="M76.57,14.15c.07-.47.51-.8.98-.73.47.07.8.51.73.98l-1.13,7.52c-.07.47-.51.8-.98.73-.47-.07-.8-.51-.73-.98l1.13-7.52Z"/>
  <path class="cls-2" d="M78.14,14.15c.07-.47.51-.8.98-.73.47.07.8.51.73.98l-1.13,7.52c-.07.47-.51.8-.98.73-.47-.07-.8-.51-.73-.98l1.13-7.52Z"/>
  <path class="cls-2" d="M74.18,24.33c-.47,0-.86-.37-.87-.85,0-.47.37-.86.85-.87l2.95-.04c.47,0,.86.37.87.85,0,.47-.37.86-.85.87l-2.95.04Z"/>
  <path class="cls-2" d="M42.13,96.2v-6.47h11.78v7.07h-11.78v-.6ZM43.33,90.93v4.67h9.38v-4.67h-9.38Z"/>
  <rect class="cls-3" x="43.33" y="90.93" width="9.38" height="4.67"/>
</svg>